0
SECTION
2
HEADER
9
$INSUNITS
70
4
9
$ACADVER
1
AC1014
9
$HANDSEED
5
FFFF
0
ENDSEC
0
SECTION
2
TABLES
0
TABLE
2
VPORT
5
8
100
AcDbSymbolTable
0
ENDTAB
0
TABLE
2
LTYPE
5
5
100
AcDbSymbolTable
0
LTYPE
5
14
100
AcDbSymbolTableRecord
100
AcDbLinetypeTableRecord
2
BYBLOCK
70
0
0
LTYPE
5
15
100
AcDbSymbolTableRecord
100
AcDbLinetypeTableRecord
2
BYLAYER
70
0
0
ENDTAB
0
TABLE
2
LAYER
5
2
100
AcDbSymbolTable
70
2
0
LAYER
5
50
100
AcDbSymbolTableRecord
100
AcDbLayerTableRecord
2
0
70
0
6
CONTINUOUS
0
ENDTAB
0
TABLE
2
STYLE
5
3
100
AcDbSymbolTable
70
1
0
STYLE
5
11
100
AcDbSymbolTableRecord
100
AcDbTextStyleTableRecord
2
STANDARD
70
0
0
ENDTAB
0
TABLE
2
VIEW
5
6
100
AcDbSymbolTable
70
0
0
ENDTAB
0
TABLE
2
UCS
5
7
100
AcDbSymbolTable
70
0
0
ENDTAB
0
TABLE
2
APPID
5
9
100
AcDbSymbolTable
70
2
0
APPID
5
12
100
AcDbSymbolTableRecord
100
AcDbRegAppTableRecord
2
ACAD
70
0
0
ENDTAB
0
TABLE
2
DIMSTYLE
5
A
100
AcDbSymbolTable
70
1
0
ENDTAB
0
TABLE
2
BLOCK_RECORD
5
1
100
AcDbSymbolTable
70
1
0
BLOCK_RECORD
5
1F
100
AcDbSymbolTableRecord
100
AcDbBlockTableRecord
2
*MODEL_SPACE
0
BLOCK_RECORD
5
1B
100
AcDbSymbolTableRecord
100
AcDbBlockTableRecord
2
*PAPER_SPACE
0
ENDTAB
0
ENDSEC
0
SECTION
2
BLOCKS
0
BLOCK
5
20
100
AcDbEntity
100
AcDbBlockBegin
2
*MODEL_SPACE
0
ENDBLK
5
21
100
AcDbEntity
100
AcDbBlockEnd
0
BLOCK
5
1C
100
AcDbEntity
100
AcDbBlockBegin
2
*PAPER_SPACE
0
ENDBLK
5
1D
100
AcDbEntity
100
AcDbBlockEnd
0
ENDSEC
0
SECTION
2
ENTITIES
0
CIRCLE
5
100
100
AcDbEntity
8
0
100
AcDbCircle
10
-120
20
115
30
0
40
2.4000000000000021
0
CIRCLE
5
101
100
AcDbEntity
8
0
100
AcDbCircle
10
-95
20
115
30
0
40
2.4000000000000021
0
CIRCLE
5
102
100
AcDbEntity
8
0
100
AcDbCircle
10
-70
20
115
30
0
40
2.4000000000000021
0
CIRCLE
5
103
100
AcDbEntity
8
0
100
AcDbCircle
10
-45
20
115
30
0
40
2.4000000000000021
0
CIRCLE
5
104
100
AcDbEntity
8
0
100
AcDbCircle
10
-170
20
90
30
0
40
2.4000000000000199
0
CIRCLE
5
105
100
AcDbEntity
8
0
100
AcDbCircle
10
-145
20
90
30
0
40
2.4000000000000021
0
CIRCLE
5
106
100
AcDbEntity
8
0
100
AcDbCircle
10
-120
20
90
30
0
40
2.4000000000000021
0
CIRCLE
5
107
100
AcDbEntity
8
0
100
AcDbCircle
10
-95
20
90
30
0
40
2.4000000000000021
0
CIRCLE
5
108
100
AcDbEntity
8
0
100
AcDbCircle
10
-70
20
90
30
0
40
2.4000000000000021
0
CIRCLE
5
109
100
AcDbEntity
8
0
100
AcDbCircle
10
-45
20
90
30
0
40
2.4000000000000021
0
CIRCLE
5
110
100
AcDbEntity
8
0
100
AcDbCircle
10
-20
20
90
30
0
40
2.4000000000000021
0
CIRCLE
5
111
100
AcDbEntity
8
0
100
AcDbCircle
10
-170
20
65
30
0
40
2.4000000000000199
0
CIRCLE
5
112
100
AcDbEntity
8
0
100
AcDbCircle
10
-145
20
65
30
0
40
2.4000000000000021
0
CIRCLE
5
113
100
AcDbEntity
8
0
100
AcDbCircle
10
-120
20
65
30
0
40
2.4000000000000021
0
CIRCLE
5
114
100
AcDbEntity
8
0
100
AcDbCircle
10
-95
20
65
30
0
40
2.4000000000000021
0
CIRCLE
5
115
100
AcDbEntity
8
0
100
AcDbCircle
10
-70
20
65
30
0
40
2.4000000000000021
0
CIRCLE
5
116
100
AcDbEntity
8
0
100
AcDbCircle
10
-20
20
65
30
0
40
2.4000000000000021
0
CIRCLE
5
117
100
AcDbEntity
8
0
100
AcDbCircle
10
-170
20
40
30
0
40
2.4000000000000199
0
CIRCLE
5
118
100
AcDbEntity
8
0
100
AcDbCircle
10
-145
20
40
30
0
40
2.4000000000000021
0
CIRCLE
5
119
100
AcDbEntity
8
0
100
AcDbCircle
10
-95
20
40
30
0
40
2.4000000000000021
0
CIRCLE
5
120
100
AcDbEntity
8
0
100
AcDbCircle
10
-45
20
40
30
0
40
2.4000000000000021
0
CIRCLE
5
121
100
AcDbEntity
8
0
100
AcDbCircle
10
-20
20
40
30
0
40
2.4000000000000021
0
CIRCLE
5
122
100
AcDbEntity
8
0
100
AcDbCircle
10
-145
20
15
30
0
40
2.4000000000000021
0
CIRCLE
5
123
100
AcDbEntity
8
0
100
AcDbCircle
10
-120
20
15
30
0
40
2.4000000000000021
0
CIRCLE
5
124
100
AcDbEntity
8
0
100
AcDbCircle
10
-70
20
15
30
0
40
2.4000000000000021
0
CIRCLE
5
125
100
AcDbEntity
8
0
100
AcDbCircle
10
-45
20
15
30
0
40
2.4000000000000021
0
CIRCLE
5
126
100
AcDbEntity
8
0
100
AcDbCircle
10
-95
20
15
30
0
40
2.4000000000000021
0
CIRCLE
5
127
100
AcDbEntity
8
0
100
AcDbCircle
10
-114.88499999999999
20
50.5
30
0
40
2.4000000000000021
0
CIRCLE
5
128
100
AcDbEntity
8
0
100
AcDbCircle
10
-74.884999999999991
20
50.500000000000007
30
0
40
2.4000000000000021
0
CIRCLE
5
129
100
AcDbEntity
8
0
100
AcDbCircle
10
-183
20
20.500000000000004
30
0
40
2.3999999999999844
0
CIRCLE
5
130
100
AcDbEntity
8
0
100
AcDbCircle
10
-159.97
20
20.500000000000004
30
0
40
2.3999999999999844
0
CIRCLE
5
131
100
AcDbEntity
8
0
100
AcDbCircle
10
-30.030000000000001
20
20.500000000000004
30
0
40
2.4000000000000021
0
CIRCLE
5
132
100
AcDbEntity
8
0
100
AcDbCircle
10
-7.0000000000000009
20
20.500000000000004
30
0
40
2.3999999999999999
0
CIRCLE
5
133
100
AcDbEntity
8
0
100
AcDbCircle
10
-45
20
65
30
0
40
2.4000000000000021
0
CIRCLE
5
134
100
AcDbEntity
8
0
100
AcDbCircle
10
-145
20
140
30
0
40
2.4000000000000021
0
CIRCLE
5
135
100
AcDbEntity
8
0
100
AcDbCircle
10
-70
20
165
30
0
40
2.4000000000000021
0
CIRCLE
5
136
100
AcDbEntity
8
0
100
AcDbCircle
10
-120
20
140
30
0
40
2.4000000000000021
0
CIRCLE
5
137
100
AcDbEntity
8
0
100
AcDbCircle
10
-95
20
165
30
0
40
2.4000000000000021
0
CIRCLE
5
138
100
AcDbEntity
8
0
100
AcDbCircle
10
-45
20
140
30
0
40
2.4000000000000021
0
CIRCLE
5
139
100
AcDbEntity
8
0
100
AcDbCircle
10
-95
20
190
30
0
40
2.4000000000000021
0
CIRCLE
5
140
100
AcDbEntity
8
0
100
AcDbCircle
10
-120
20
165
30
0
40
2.4000000000000021
0
CIRCLE
5
141
100
AcDbEntity
8
0
100
AcDbCircle
10
-95
20
140
30
0
40
2.4000000000000021
0
CIRCLE
5
142
100
AcDbEntity
8
0
100
AcDbCircle
10
-70
20
140
30
0
40
2.4000000000000021
0
CIRCLE
5
143
100
AcDbEntity
8
0
100
AcDbCircle
10
-70
20
190
30
0
40
2.4000000000000021
0
CIRCLE
5
144
100
AcDbEntity
8
0
100
AcDbCircle
10
-145
20
115
30
0
40
2.4000000000000021
0
CIRCLE
5
145
100
AcDbEntity
8
0
100
AcDbCircle
10
-120
20
190
30
0
40
2.4000000000000021
0
LWPOLYLINE
5
146
100
AcDbEntity
8
0
100
AcDbPolyline
90
8
70
1
43
0.0
10
-121.34659572923107
20
204.34771387644955
42
-0.59409140689035989
10
-68.653404270768959
20
204.3477138764496
10
0
20
78.280000000000001
10
-5.960464455334602e-08
20
4
42
-0.41421356237309503
10
-4.0000000596046448
20
0
10
-185.9999997853453
20
-1.1657341758564144e-14
42
-0.41421357809081988
10
-190
20
4.0000000000000036
10
-190
20
78.280000000000001
0
LWPOLYLINE
5
147
100
AcDbEntity
8
0
100
AcDbPolyline
90
6
70
1
43
0.0
10
-125
20
5
10
-65
20
5
10
-35
20
35
10
-35
20
105
10
-155
20
105
10
-155
20
35
0
CIRCLE
5
148
100
AcDbEntity
8
0
100
AcDbCircle
10
-70
20
15
30
0
40
2.4000000000000021
0
CIRCLE
5
149
100
AcDbEntity
8
0
100
AcDbCircle
10
-95
20
15
30
0
40
2.4000000000000021
0
CIRCLE
5
150
100
AcDbEntity
8
0
100
AcDbCircle
10
-120
20
15
30
0
40
2.4000000000000021
0
CIRCLE
5
151
100
AcDbEntity
8
0
100
AcDbCircle
10
-45
20
40
30
0
40
2.4000000000000021
0
CIRCLE
5
152
100
AcDbEntity
8
0
100
AcDbCircle
10
-70
20
40
30
0
40
2.4000000000000021
0
CIRCLE
5
153
100
AcDbEntity
8
0
100
AcDbCircle
10
-95
20
40
30
0
40
2.4000000000000021
0
CIRCLE
5
154
100
AcDbEntity
8
0
100
AcDbCircle
10
-120
20
40
30
0
40
2.4000000000000021
0
CIRCLE
5
155
100
AcDbEntity
8
0
100
AcDbCircle
10
-145
20
40
30
0
40
2.4000000000000021
0
CIRCLE
5
156
100
AcDbEntity
8
0
100
AcDbCircle
10
-45
20
65
30
0
40
2.4000000000000021
0
CIRCLE
5
157
100
AcDbEntity
8
0
100
AcDbCircle
10
-70
20
65
30
0
40
2.4000000000000021
0
CIRCLE
5
158
100
AcDbEntity
8
0
100
AcDbCircle
10
-95
20
65
30
0
40
2.4000000000000021
0
CIRCLE
5
159
100
AcDbEntity
8
0
100
AcDbCircle
10
-120
20
65
30
0
40
2.4000000000000021
0
CIRCLE
5
160
100
AcDbEntity
8
0
100
AcDbCircle
10
-145
20
65
30
0
40
2.4000000000000021
0
CIRCLE
5
161
100
AcDbEntity
8
0
100
AcDbCircle
10
-45
20
90
30
0
40
2.4000000000000021
0
CIRCLE
5
162
100
AcDbEntity
8
0
100
AcDbCircle
10
-70
20
90
30
0
40
2.4000000000000021
0
CIRCLE
5
163
100
AcDbEntity
8
0
100
AcDbCircle
10
-95
20
90
30
0
40
2.4000000000000021
0
CIRCLE
5
164
100
AcDbEntity
8
0
100
AcDbCircle
10
-120
20
90
30
0
40
2.4000000000000021
0
CIRCLE
5
165
100
AcDbEntity
8
0
100
AcDbCircle
10
-145
20
90
30
0
40
2.4000000000000021
0
ENDSEC
0
SECTION
2
OBJECTS
0
DICTIONARY
5
C
100
AcDbDictionary
3
ACAD_GROUP
350
D
3
ACAD_MLINESTYLE
350
17
0
DICTIONARY
5
D
100
AcDbDictionary
0
DICTIONARY
5
1A
330
C
100
AcDbDictionary
0
DICTIONARY
5
17
100
AcDbDictionary
0
ENDSEC
0
EOF
